<mxfile host="app.diagrams.net" modified="2024-01-17T14:26:14.034Z" agent="Mozilla/5.0 (X11; Linux x86_64; rv:121.0) Gecko/20100101 Firefox/121.0" etag="grOM3N6_QPXca0PaAi8L" version="22.1.21" type="device">
  <diagram name="Page-1" id="nNVCnTviKRXPbjFOHi8J">
    <mxGraphModel dx="2849" dy="738" grid="1" gridSize="10" guides="1" tooltips="1" connect="1" arrows="1" fold="1" page="1" pageScale="1" pageWidth="827" pageHeight="1169" math="0" shadow="0">
      <root>
        <mxCell id="0" />
        <mxCell id="1" parent="0" />
        <mxCell id="NPNiB9Q6Bn3kw1vDuT2p-3" value="" style="whiteSpace=wrap;html=1;aspect=fixed;" vertex="1" parent="1">
          <mxGeometry x="-970" y="620" width="670" height="670" as="geometry" />
        </mxCell>
        <object label="use1 :utilisateur" utilisateur="" id="NPNiB9Q6Bn3kw1vDuT2p-4">
          <mxCell style="shape=umlActor;verticalLabelPosition=bottom;verticalAlign=top;html=1;outlineConnect=0;" vertex="1" parent="1">
            <mxGeometry x="-1150" y="832.5" width="10" height="60" as="geometry" />
          </mxCell>
        </object>
        <mxCell id="NPNiB9Q6Bn3kw1vDuT2p-5" value="&lt;div&gt;Chat_système&lt;/div&gt;" style="rounded=0;whiteSpace=wrap;html=1;strokeColor=default;align=center;verticalAlign=middle;fontFamily=Helvetica;fontSize=12;fontColor=default;fillColor=default;" vertex="1" parent="1">
          <mxGeometry x="-970" y="620" width="110" height="30" as="geometry" />
        </mxCell>
        <mxCell id="NPNiB9Q6Bn3kw1vDuT2p-6" value="&lt;div&gt;&lt;br&gt;connecter &lt;br&gt; avec un username&lt;/div&gt;&lt;div&gt;&lt;br&gt;&lt;/div&gt;" style="ellipse;whiteSpace=wrap;html=1;strokeColor=default;align=center;verticalAlign=middle;fontFamily=Helvetica;fontSize=12;fontColor=default;fillColor=default;" vertex="1" parent="1">
          <mxGeometry x="-470" y="720" width="130" height="100" as="geometry" />
        </mxCell>
        <mxCell id="NPNiB9Q6Bn3kw1vDuT2p-7" value="" style="endArrow=none;html=1;rounded=0;fontFamily=Helvetica;fontSize=12;fontColor=default;exitX=1;exitY=0.3333333333333333;exitDx=0;exitDy=0;exitPerimeter=0;entryX=0;entryY=0.5;entryDx=0;entryDy=0;" edge="1" parent="1" source="NPNiB9Q6Bn3kw1vDuT2p-4" target="NPNiB9Q6Bn3kw1vDuT2p-21">
          <mxGeometry width="50" height="50" relative="1" as="geometry">
            <mxPoint x="-1070" y="730" as="sourcePoint" />
            <mxPoint x="-1020" y="680" as="targetPoint" />
          </mxGeometry>
        </mxCell>
        <mxCell id="NPNiB9Q6Bn3kw1vDuT2p-8" value="renouveler list d&#39;amie" style="ellipse;whiteSpace=wrap;html=1;strokeColor=default;align=center;verticalAlign=middle;fontFamily=Helvetica;fontSize=12;fontColor=default;fillColor=default;" vertex="1" parent="1">
          <mxGeometry x="-915" y="720" width="125" height="60" as="geometry" />
        </mxCell>
        <mxCell id="NPNiB9Q6Bn3kw1vDuT2p-11" value="&lt;div&gt;envoyer &lt;br&gt;&lt;/div&gt;&lt;div&gt;&lt;br&gt;&lt;/div&gt;" style="ellipse;whiteSpace=wrap;html=1;strokeColor=default;align=center;verticalAlign=middle;fontFamily=Helvetica;fontSize=12;fontColor=default;fillColor=default;" vertex="1" parent="1">
          <mxGeometry x="-910" y="800" width="110" height="32.5" as="geometry" />
        </mxCell>
        <mxCell id="NPNiB9Q6Bn3kw1vDuT2p-15" value="recevoir le message" style="ellipse;whiteSpace=wrap;html=1;strokeColor=default;align=center;verticalAlign=middle;fontFamily=Helvetica;fontSize=12;fontColor=default;fillColor=default;" vertex="1" parent="1">
          <mxGeometry x="-910" y="950" width="130" height="50" as="geometry" />
        </mxCell>
        <mxCell id="NPNiB9Q6Bn3kw1vDuT2p-19" value="" style="endArrow=none;html=1;rounded=0;fontFamily=Helvetica;fontSize=12;fontColor=default;entryX=0;entryY=0.5;entryDx=0;entryDy=0;exitX=1;exitY=0.3333333333333333;exitDx=0;exitDy=0;exitPerimeter=0;" edge="1" parent="1" source="NPNiB9Q6Bn3kw1vDuT2p-4" target="NPNiB9Q6Bn3kw1vDuT2p-15">
          <mxGeometry width="50" height="50" relative="1" as="geometry">
            <mxPoint x="-1120" y="700" as="sourcePoint" />
            <mxPoint x="-950" y="910" as="targetPoint" />
          </mxGeometry>
        </mxCell>
        <mxCell id="NPNiB9Q6Bn3kw1vDuT2p-21" value="lire l&#39;histoire de message" style="ellipse;whiteSpace=wrap;html=1;strokeColor=default;align=center;verticalAlign=middle;fontFamily=Helvetica;fontSize=12;fontColor=default;fillColor=default;" vertex="1" parent="1">
          <mxGeometry x="-905" y="852.5" width="145" height="70" as="geometry" />
        </mxCell>
        <mxCell id="NPNiB9Q6Bn3kw1vDuT2p-23" value="choisir un user active" style="ellipse;whiteSpace=wrap;html=1;strokeColor=default;align=center;verticalAlign=middle;fontFamily=Helvetica;fontSize=12;fontColor=default;fillColor=default;" vertex="1" parent="1">
          <mxGeometry x="-680" y="790" width="130" height="57.5" as="geometry" />
        </mxCell>
        <mxCell id="NPNiB9Q6Bn3kw1vDuT2p-28" value="réduire l&#39;agent" style="ellipse;whiteSpace=wrap;html=1;strokeColor=default;align=center;verticalAlign=middle;fontFamily=Helvetica;fontSize=12;fontColor=default;fillColor=default;" vertex="1" parent="1">
          <mxGeometry x="-915" y="1120" width="140" height="70" as="geometry" />
        </mxCell>
        <mxCell id="NPNiB9Q6Bn3kw1vDuT2p-29" value="" style="endArrow=none;html=1;rounded=0;fontFamily=Helvetica;fontSize=12;fontColor=default;entryX=0;entryY=0.5;entryDx=0;entryDy=0;exitX=1;exitY=0.3333333333333333;exitDx=0;exitDy=0;exitPerimeter=0;" edge="1" parent="1" target="NPNiB9Q6Bn3kw1vDuT2p-28" source="NPNiB9Q6Bn3kw1vDuT2p-4">
          <mxGeometry width="50" height="50" relative="1" as="geometry">
            <mxPoint x="-1120" y="700" as="sourcePoint" />
            <mxPoint x="-1020" y="720" as="targetPoint" />
          </mxGeometry>
        </mxCell>
        <mxCell id="NPNiB9Q6Bn3kw1vDuT2p-30" value="changer le pseudonyme" style="ellipse;whiteSpace=wrap;html=1;strokeColor=default;align=center;verticalAlign=middle;fontFamily=Helvetica;fontSize=12;fontColor=default;fillColor=default;" vertex="1" parent="1">
          <mxGeometry x="-910" y="1020" width="120" height="70" as="geometry" />
        </mxCell>
        <mxCell id="NPNiB9Q6Bn3kw1vDuT2p-31" value="" style="endArrow=none;html=1;rounded=0;fontFamily=Helvetica;fontSize=12;fontColor=default;exitX=1;exitY=0.3333333333333333;exitDx=0;exitDy=0;exitPerimeter=0;entryX=0;entryY=0.5;entryDx=0;entryDy=0;" edge="1" parent="1" source="NPNiB9Q6Bn3kw1vDuT2p-4" target="NPNiB9Q6Bn3kw1vDuT2p-30">
          <mxGeometry width="50" height="50" relative="1" as="geometry">
            <mxPoint x="-1225" y="975" as="sourcePoint" />
            <mxPoint x="-1025" y="985" as="targetPoint" />
          </mxGeometry>
        </mxCell>
        <mxCell id="NPNiB9Q6Bn3kw1vDuT2p-33" value="&lt;div&gt;include&lt;/div&gt;&lt;div&gt;&lt;br&gt;&lt;/div&gt;" style="endArrow=open;endSize=12;dashed=1;html=1;rounded=0;fontFamily=Helvetica;fontSize=12;fontColor=default;entryX=0.308;entryY=1;entryDx=0;entryDy=0;entryPerimeter=0;exitX=0.983;exitY=0.638;exitDx=0;exitDy=0;exitPerimeter=0;" edge="1" parent="1" source="NPNiB9Q6Bn3kw1vDuT2p-30" target="NPNiB9Q6Bn3kw1vDuT2p-6">
          <mxGeometry x="-0.1211" y="15" width="160" relative="1" as="geometry">
            <mxPoint x="-830" y="1170" as="sourcePoint" />
            <mxPoint x="-700" y="1110" as="targetPoint" />
            <mxPoint as="offset" />
          </mxGeometry>
        </mxCell>
        <mxCell id="NPNiB9Q6Bn3kw1vDuT2p-39" value="include" style="endArrow=open;endSize=12;dashed=1;html=1;rounded=0;fontFamily=Helvetica;fontSize=12;fontColor=default;entryX=0;entryY=0.5;entryDx=0;entryDy=0;exitX=0.973;exitY=0.6;exitDx=0;exitDy=0;exitPerimeter=0;" edge="1" parent="1" source="NPNiB9Q6Bn3kw1vDuT2p-11" target="NPNiB9Q6Bn3kw1vDuT2p-23">
          <mxGeometry x="-0.3008" y="3" width="160" relative="1" as="geometry">
            <mxPoint x="-417" y="830" as="sourcePoint" />
            <mxPoint x="-470" y="760" as="targetPoint" />
            <mxPoint as="offset" />
          </mxGeometry>
        </mxCell>
        <mxCell id="NPNiB9Q6Bn3kw1vDuT2p-40" value="" style="endArrow=none;html=1;rounded=0;fontFamily=Helvetica;fontSize=12;fontColor=default;entryX=0;entryY=0.5;entryDx=0;entryDy=0;exitX=1;exitY=0.3333333333333333;exitDx=0;exitDy=0;exitPerimeter=0;" edge="1" parent="1" source="NPNiB9Q6Bn3kw1vDuT2p-4" target="NPNiB9Q6Bn3kw1vDuT2p-11">
          <mxGeometry width="50" height="50" relative="1" as="geometry">
            <mxPoint x="-1120" y="700" as="sourcePoint" />
            <mxPoint x="-460" y="710" as="targetPoint" />
          </mxGeometry>
        </mxCell>
        <mxCell id="NPNiB9Q6Bn3kw1vDuT2p-41" value="" style="endArrow=none;html=1;rounded=0;fontFamily=Helvetica;fontSize=12;fontColor=default;exitX=1;exitY=0.3333333333333333;exitDx=0;exitDy=0;exitPerimeter=0;" edge="1" parent="1" source="NPNiB9Q6Bn3kw1vDuT2p-4" target="NPNiB9Q6Bn3kw1vDuT2p-8">
          <mxGeometry width="50" height="50" relative="1" as="geometry">
            <mxPoint x="-1120" y="700" as="sourcePoint" />
            <mxPoint x="-900" y="820" as="targetPoint" />
          </mxGeometry>
        </mxCell>
        <mxCell id="NPNiB9Q6Bn3kw1vDuT2p-42" value="&lt;div&gt;&lt;br&gt;&amp;nbsp;deconnecter &lt;br&gt;&lt;/div&gt;&lt;div&gt;&lt;br&gt;&lt;/div&gt;" style="ellipse;whiteSpace=wrap;html=1;strokeColor=default;align=center;verticalAlign=middle;fontFamily=Helvetica;fontSize=12;fontColor=default;fillColor=default;" vertex="1" parent="1">
          <mxGeometry x="-915" y="660" width="115" height="47.5" as="geometry" />
        </mxCell>
        <mxCell id="NPNiB9Q6Bn3kw1vDuT2p-43" value="include" style="endArrow=open;endSize=12;dashed=1;html=1;rounded=0;fontFamily=Helvetica;fontSize=12;fontColor=default;exitX=0.992;exitY=0.604;exitDx=0;exitDy=0;exitPerimeter=0;" edge="1" parent="1" source="NPNiB9Q6Bn3kw1vDuT2p-8" target="NPNiB9Q6Bn3kw1vDuT2p-6">
          <mxGeometry x="-0.053" y="18" width="160" relative="1" as="geometry">
            <mxPoint x="-706" y="695.5" as="sourcePoint" />
            <mxPoint x="-580" y="704.5" as="targetPoint" />
            <mxPoint as="offset" />
          </mxGeometry>
        </mxCell>
        <mxCell id="NPNiB9Q6Bn3kw1vDuT2p-44" value="include" style="endArrow=open;endSize=12;dashed=1;html=1;rounded=0;fontFamily=Helvetica;fontSize=12;fontColor=default;" edge="1" parent="1" source="NPNiB9Q6Bn3kw1vDuT2p-42" target="NPNiB9Q6Bn3kw1vDuT2p-6">
          <mxGeometry x="-0.053" y="18" width="160" relative="1" as="geometry">
            <mxPoint x="-771" y="718" as="sourcePoint" />
            <mxPoint x="-460" y="711" as="targetPoint" />
            <mxPoint as="offset" />
          </mxGeometry>
        </mxCell>
        <mxCell id="NPNiB9Q6Bn3kw1vDuT2p-47" value="" style="endArrow=none;html=1;rounded=0;fontFamily=Helvetica;fontSize=12;fontColor=default;entryX=0.038;entryY=0.654;entryDx=0;entryDy=0;entryPerimeter=0;exitX=1;exitY=0.3333333333333333;exitDx=0;exitDy=0;exitPerimeter=0;" edge="1" parent="1" source="NPNiB9Q6Bn3kw1vDuT2p-4" target="NPNiB9Q6Bn3kw1vDuT2p-42">
          <mxGeometry width="50" height="50" relative="1" as="geometry">
            <mxPoint x="-1120" y="700" as="sourcePoint" />
            <mxPoint x="-901" y="749" as="targetPoint" />
          </mxGeometry>
        </mxCell>
        <mxCell id="NPNiB9Q6Bn3kw1vDuT2p-48" value="include" style="endArrow=open;endSize=12;dashed=1;html=1;rounded=0;fontFamily=Helvetica;fontSize=12;fontColor=default;entryX=0;entryY=1;entryDx=0;entryDy=0;exitX=1;exitY=0.5;exitDx=0;exitDy=0;" edge="1" parent="1" source="NPNiB9Q6Bn3kw1vDuT2p-21" target="NPNiB9Q6Bn3kw1vDuT2p-23">
          <mxGeometry x="-0.1268" y="7" width="160" relative="1" as="geometry">
            <mxPoint x="-793" y="830" as="sourcePoint" />
            <mxPoint x="-670" y="829" as="targetPoint" />
            <mxPoint as="offset" />
          </mxGeometry>
        </mxCell>
        <mxCell id="NPNiB9Q6Bn3kw1vDuT2p-49" value="include" style="endArrow=open;endSize=12;dashed=1;html=1;rounded=0;fontFamily=Helvetica;fontSize=12;fontColor=default;exitX=0.923;exitY=0.174;exitDx=0;exitDy=0;exitPerimeter=0;entryX=0.022;entryY=0.669;entryDx=0;entryDy=0;entryPerimeter=0;" edge="1" parent="1" source="NPNiB9Q6Bn3kw1vDuT2p-23" target="NPNiB9Q6Bn3kw1vDuT2p-6">
          <mxGeometry x="-0.053" y="18" width="160" relative="1" as="geometry">
            <mxPoint x="-781" y="766" as="sourcePoint" />
            <mxPoint x="-458" y="719" as="targetPoint" />
            <mxPoint as="offset" />
          </mxGeometry>
        </mxCell>
        <mxCell id="NPNiB9Q6Bn3kw1vDuT2p-50" value="include" style="endArrow=open;endSize=12;dashed=1;html=1;rounded=0;fontFamily=Helvetica;fontSize=12;fontColor=default;exitX=1;exitY=0.5;exitDx=0;exitDy=0;" edge="1" parent="1" source="NPNiB9Q6Bn3kw1vDuT2p-15" target="NPNiB9Q6Bn3kw1vDuT2p-6">
          <mxGeometry x="-0.053" y="18" width="160" relative="1" as="geometry">
            <mxPoint x="-550" y="810" as="sourcePoint" />
            <mxPoint x="-448" y="729" as="targetPoint" />
            <mxPoint as="offset" />
          </mxGeometry>
        </mxCell>
        <mxCell id="NPNiB9Q6Bn3kw1vDuT2p-51" value="extends" style="endArrow=open;endSize=12;dashed=1;html=1;rounded=0;fontFamily=Helvetica;fontSize=12;fontColor=default;exitX=1;exitY=1;exitDx=0;exitDy=0;" edge="1" parent="1" source="NPNiB9Q6Bn3kw1vDuT2p-8" target="NPNiB9Q6Bn3kw1vDuT2p-23">
          <mxGeometry x="0.0065" y="-2" width="160" relative="1" as="geometry">
            <mxPoint x="-781" y="766" as="sourcePoint" />
            <mxPoint x="-460" y="778" as="targetPoint" />
            <mxPoint as="offset" />
            <Array as="points">
              <mxPoint x="-730" y="790" />
            </Array>
          </mxGeometry>
        </mxCell>
        <mxCell id="NPNiB9Q6Bn3kw1vDuT2p-52" value="extends" style="endArrow=open;endSize=12;dashed=1;html=1;rounded=0;fontFamily=Helvetica;fontSize=12;fontColor=default;exitX=0.162;exitY=0.089;exitDx=0;exitDy=0;exitPerimeter=0;entryX=0.278;entryY=0.932;entryDx=0;entryDy=0;entryPerimeter=0;" edge="1" parent="1" source="NPNiB9Q6Bn3kw1vDuT2p-30" target="NPNiB9Q6Bn3kw1vDuT2p-8">
          <mxGeometry x="0.0065" y="-2" width="160" relative="1" as="geometry">
            <mxPoint x="-740" y="1070" as="sourcePoint" />
            <mxPoint x="-604" y="1104" as="targetPoint" />
            <mxPoint as="offset" />
            <Array as="points">
              <mxPoint x="-950" y="910" />
            </Array>
          </mxGeometry>
        </mxCell>
      </root>
    </mxGraphModel>
  </diagram>
</mxfile>
